<svg xmlns="http://www.w3.org/2000/svg" width="333.94" height="138.17" viewBox="0 0 333.94 138.17"><g style="isolation:isolate"><g style="isolation:isolate"><path d="M73.19,93l-1.64-5.9h-12L58,93H43.69l14.6-42H73.5L88.1,93Zm-7.6-27.68-3.1,11.25h6.2Z" transform="translate(-5.03 -3.09)" fill="#010101"/><path d="M113.77,93l-6.69-14h-1.77V93H91.56V51h18.25c5.17,0,9.13.92,12.17,3a12.36,12.36,0,0,1,5.17,10.34c0,8.51-5.17,11.56-7,12.65L129.58,93Zm-2-30.84a4.66,4.66,0,0,0-3-.79h-3.47v7.3h3.47c2.37,0,4.56-.92,4.56-3.65A3,3,0,0,0,111.76,62.17Z" transform="translate(-5.03 -3.09)" fill="#010101"/><path d="M155,93l-6.69-14h-1.77V93H132.75V51H151c5.17,0,9.12.92,12.16,3a12.36,12.36,0,0,1,5.17,10.34c0,8.51-5.17,11.56-7,12.65L170.77,93Zm-2-30.84a4.66,4.66,0,0,0-3-.79h-3.47v7.3h3.47c2.37,0,4.56-.92,4.56-3.65A3,3,0,0,0,152.94,62.17Z" transform="translate(-5.03 -3.09)" fill="#010101"/></g><g style="isolation:isolate"><path d="M174.48,93V51h13.75V93Z" transform="translate(-5.03 -3.09)" fill="#010101"/><path d="M219.86,93H206.48L190.66,51h14.6l7.91,24.34L221.08,51h14.6Z" transform="translate(-5.03 -3.09)" fill="#010101"/><path d="M257.3,93l-1.64-5.9h-12L242.09,93h-14.3L242.4,51h15.2l14.6,42Zm-7.6-27.68-3.11,11.25h6.21Z" transform="translate(-5.03 -3.09)" fill="#010101"/><path d="M274.63,93V51h13.69V81.75h14.3V93Z" transform="translate(-5.03 -3.09)" fill="#010101"/><path d="M333.5,90.15c-3.35,2.55-7.55,3.59-12.41,3.59a26.53,26.53,0,0,1-16.18-5.6L311,77.8a21.11,21.11,0,0,0,11.19,4.56c1.83,0,3.1-.54,3.1-1.76s-1.52-1.7-3-2.19-4.86-1.52-6.08-2c-5.84-2.31-9.61-5-9.61-12a13.27,13.27,0,0,1,4.86-10.16c2.56-2.13,6.76-3.65,12.35-3.65a24.36,24.36,0,0,1,15,5l-5.23,9.73a17.38,17.38,0,0,0-10-4c-2.19,0-3.41.42-3.41,1.7s1.95,1.64,2.92,2,3.53,1,5,1.52c6.33,2.13,11,5.29,11,12.65A13.94,13.94,0,0,1,333.5,90.15Z" transform="translate(-5.03 -3.09)" fill="#010101"/></g></g><path d="M107,114.53l4,6.17c1.15,1.78,2.33,3.56,2.93,4.48l-14.83-5.54-1.33.86L106,133.26l1.37-.89-6.79-10.51,14.61,5.46,1.44-.93-8.24-12.76Z" transform="translate(-5.03 -3.09)" fill="#010101"/><polygon points="79.2 121.79 79.6 123.17 86.34 121.23 87.97 126.87 81.75 128.66 82.14 130.03 88.36 128.25 89.75 133.06 83.15 134.96 83.55 136.34 91.73 133.98 87.53 119.4 79.2 121.79" fill="#010101"/><polygon points="70.19 122.68 65.69 135.12 62.49 122.3 60.82 122.22 55.53 137.15 57.25 137.24 61.55 124.7 64.76 137.62 66.37 137.71 70.75 125.31 73.66 138.08 75.38 138.17 71.86 122.76 70.19 122.68" fill="#010101"/><path d="M52.31,126.32a3.2,3.2,0,1,0,1.78,4.16A3.27,3.27,0,0,0,52.31,126.32Z" transform="translate(-5.03 -3.09)" fill="#010101"/><path d="M39.57,122.6c-1.32,1.65-2.63,3.33-3.32,4.19l.56-15.8-1.24-1-9.48,11.85,1.28,1,7.81-9.77-.55,15.58L36,129.75l9.48-11.85-1.29-1Z" transform="translate(-5.03 -3.09)" fill="#010101"/><polygon points="22.1 95.46 20.92 96.28 24.9 102.06 20.06 105.39 16.39 100.06 15.21 100.87 18.88 106.2 14.75 109.04 10.86 103.39 9.68 104.2 14.51 111.21 27.01 102.61 22.1 95.46" fill="#010101"/><polygon points="18.38 87.22 5.16 86.93 16.28 79.81 15.83 78.2 0 77.96 0.46 79.61 13.71 79.69 2.49 86.85 2.93 88.4 16.07 88.6 4.9 95.43 5.36 97.08 18.83 88.83 18.38 87.22" fill="#010101"/><path d="M9.23,68.39a3.26,3.26,0,0,0,3,3.37,3.19,3.19,0,1,0,.36-6.37A3.24,3.24,0,0,0,9.23,68.39Z" transform="translate(-5.03 -3.09)" fill="#010101"/><path d="M22,58l-6.9-2.52c-2-.73-4-1.44-5-1.82l15.16-4.5.55-1.49L11.51,42.47,11,44l11.76,4.29L7.76,52.74l-.59,1.61,14.26,5.21Z" transform="translate(-5.03 -3.09)" fill="#010101"/><polygon points="28.91 32.96 27.77 32.09 23.54 37.7 18.86 34.16 22.75 29 21.61 28.13 17.71 33.3 13.71 30.28 17.84 24.8 16.7 23.94 11.57 30.73 23.69 39.88 28.91 32.96" fill="#010101"/><polygon points="38.51 6.45 37.09 7.42 41.22 20 30.87 11.64 29.54 12.54 33.52 25.07 23.5 16.64 22.08 17.61 34.18 27.76 35.56 26.82 31.65 14.2 41.92 22.48 43.31 21.54 38.51 6.45" fill="#010101"/><path d="M60.78,11.72a3.19,3.19,0,0,0-6.16,1.68,3.19,3.19,0,1,0,6.16-1.68Z" transform="translate(-5.03 -3.09)" fill="#010101"/><path d="M80.19,15.91,71.25,3.14l-1.72-.05L69.1,18.26l1.65,0L71,11c.06-2.11.1-4.24.13-5.34l9.07,13,1.58.05.43-15.17L80.55,3.4Z" transform="translate(-5.03 -3.09)" fill="#010101"/><polygon points="88.02 4.29 94.53 6.46 94.99 5.1 86.9 2.42 82.12 16.83 90.35 19.56 90.8 18.2 84.14 15.99 85.99 10.41 92.13 12.45 92.58 11.09 86.44 9.06 88.02 4.29" fill="#010101"/><polygon points="109.02 16.2 104.4 28.57 105.73 29.59 118.54 20.28 117.18 19.23 106.53 27.13 111.2 14.66 109.93 13.68 99.29 21.42 104.13 9.24 102.77 8.2 96.95 22.89 98.27 23.91 109.02 16.2" fill="#010101"/></svg>